<svg width="150" height="25" viewBox="0 0 150 25" fill="none" xmlns="http://www.w3.org/2000/svg">
<path d="M10.6938 8.72266L7.4624 10.6108V14.3888L10.6938 16.277L13.9252 14.3888V10.6108L10.6938 8.72266Z" fill="#64AB51"/>
<path d="M10.6937 0L0 6.24917V18.7508L3.73075 20.9305V8.4305L10.6937 4.36184L17.6567 8.4305V16.5695L10.6937 20.6382L7.46232 18.7508V23.1118L10.6937 25L21.3874 18.7508V6.24917L10.6937 0Z" fill="#2264C3"/>
<path d="M34.6307 15.4575H31.4923V20.3215H29.0054V4.67822H34.6315C38.113 4.67822 39.8546 6.42979 39.8546 9.93042C39.8546 11.727 39.4177 13.0979 38.5433 14.0424C37.668 14.9852 36.364 15.4575 34.6307 15.4575ZM31.4931 13.2645H34.6093C36.4019 13.2645 37.2994 12.1534 37.2994 9.92959C37.2994 8.86432 37.0822 8.08807 36.6495 7.60083C36.2168 7.11359 35.5364 6.86955 34.6101 6.86955H31.4939V13.2645H31.4931Z" fill="#2264C3"/>
<path d="M49.94 18.2671L50.5677 18.1988L50.6121 20.0478C48.9084 20.3984 47.3996 20.5733 46.0842 20.5733C44.4249 20.5733 43.2337 20.1086 42.5089 19.1799C41.7842 18.2513 41.4214 16.7662 41.4214 14.7265C41.4214 10.6761 43.0428 8.65137 46.2858 8.65137C49.4242 8.65137 50.993 10.3946 50.993 13.8811L50.8359 15.6618H43.8869C43.9017 16.6063 44.1032 17.2993 44.4924 17.7399C44.8807 18.1821 45.6054 18.402 46.6666 18.402C47.7287 18.4037 48.8195 18.3579 49.94 18.2671ZM48.595 13.7453C48.595 12.6184 48.4197 11.8305 48.0685 11.3807C47.7172 10.9327 47.1232 10.7078 46.2866 10.7078C45.4491 10.7078 44.8412 10.9435 44.4595 11.4157C44.0786 11.888 43.8803 12.6642 43.8655 13.7453H48.595Z" fill="#2264C3"/>
<path d="M53.3467 20.3215V8.90255H55.7678V10.2727C57.0379 9.43644 58.3081 8.89589 59.5783 8.65186V11.1405C58.2925 11.3996 57.1951 11.7344 56.2836 12.1458L55.7908 12.3515V20.3215H53.3467Z" fill="#2264C3"/>
<path d="M69.2168 11.2546C67.4538 11.0122 66.1762 10.889 65.384 10.889C64.5918 10.889 64.0431 10.9839 63.7371 11.1755C63.4302 11.3654 63.2772 11.6669 63.2772 12.0775C63.2772 12.4881 63.445 12.7771 63.7815 12.9445C64.1179 13.1128 64.9102 13.3068 66.1581 13.5276C67.4053 13.7483 68.2913 14.0948 68.8145 14.5662C69.3377 15.0384 69.5993 15.8763 69.5993 17.0782C69.5993 18.2809 69.2217 19.1654 68.4673 19.7276C67.7121 20.2906 66.6106 20.573 65.1611 20.573C64.2496 20.573 63.0987 20.443 61.7092 20.1848L61.0141 20.0699L61.1037 17.9918C62.8971 18.2351 64.1895 18.3575 64.9817 18.3575C65.774 18.3575 66.3383 18.2584 66.6739 18.0601C67.0104 17.8628 67.1782 17.5354 67.1782 17.0782C67.1782 16.6217 67.017 16.3061 66.6962 16.1303C66.3745 15.9563 65.6053 15.7647 64.387 15.559C63.1686 15.3541 62.276 15.0301 61.7084 14.5887C61.1399 14.1472 60.8569 13.3402 60.8569 12.1683C60.8569 10.9964 61.2493 10.121 62.0342 9.54135C62.8181 8.96333 63.8234 8.67432 65.0492 8.67432C66.0051 8.67432 67.1782 8.79592 68.5685 9.03995L69.2637 9.17655L69.2168 11.2546Z" fill="#2264C3"/>
<path d="M72.5676 10.1361C73.3376 9.14659 74.6185 8.65186 76.4119 8.65186C78.2045 8.65186 79.4862 9.14659 80.2562 10.1361C81.0253 11.1264 81.4104 12.6106 81.4104 14.5895C81.4104 16.5685 81.036 18.061 80.2899 19.0655C79.5421 20.0708 78.2497 20.573 76.4119 20.573C74.5732 20.573 73.2809 20.0699 72.5339 19.0655C71.7861 18.0602 71.4126 16.5685 71.4126 14.5895C71.4126 12.6106 71.7984 11.1264 72.5676 10.1361ZM74.3947 17.5588C74.7378 18.1676 75.4107 18.4725 76.4119 18.4725C77.4131 18.4725 78.0852 18.1676 78.429 17.5588C78.7729 16.9499 78.9448 15.953 78.9448 14.567C78.9448 13.1819 78.7614 12.2 78.3961 11.6203C78.0292 11.0422 77.3686 10.7532 76.4127 10.7532C75.456 10.7532 74.7945 11.0422 74.4285 11.6203C74.0624 12.1991 73.8797 13.1819 73.8797 14.567C73.8789 15.953 74.0509 16.9499 74.3947 17.5588Z" fill="#2264C3"/>
<path d="M86.2744 20.3215H83.8311V8.90255H86.2521V9.61051C87.3422 8.97168 88.3738 8.65186 89.3453 8.65186C90.8393 8.65186 91.8594 9.08163 92.4048 9.942C92.9502 10.8024 93.2225 12.2225 93.2225 14.2014V20.3223H90.8014V14.2697C90.8014 13.037 90.6706 12.1608 90.409 11.6428C90.1474 11.1255 89.6127 10.8665 88.8065 10.8665C88.0439 10.8665 87.3117 11.0189 86.61 11.3238L86.2744 11.4604V20.3215Z" fill="#2264C3"/>
<path d="M104.363 12.4202V17.6266C104.378 17.9622 104.463 18.2088 104.621 18.3695C104.778 18.5286 105.02 18.6319 105.349 18.6777L105.282 20.5733C103.997 20.5733 103.003 20.291 102.301 19.728C101.105 20.291 99.9027 20.5733 98.6917 20.5733C96.4648 20.5733 95.3525 19.3623 95.3525 16.9419C95.3525 15.7859 95.6553 14.948 96.2599 14.43C96.8654 13.9119 97.7958 13.6004 99.0512 13.493L101.943 13.2414V12.4194C101.943 11.8105 101.812 11.3841 101.55 11.14C101.289 10.8968 100.904 10.7744 100.396 10.7744C99.4395 10.7744 98.2442 10.836 96.8095 10.9568L96.0921 11.0034L96.0024 9.24439C97.6313 8.8496 99.1294 8.65137 100.497 8.65137C101.864 8.65137 102.85 8.95121 103.455 9.55339C104.06 10.1556 104.363 11.1109 104.363 12.4202ZM99.3424 15.252C98.3116 15.3428 97.7958 15.9142 97.7958 16.9644C97.7958 18.0147 98.2516 18.5403 99.1631 18.5403C99.9101 18.5403 100.702 18.4187 101.54 18.1746L101.943 18.0372V14.9997L99.3424 15.252Z" fill="#2264C3"/>
<path d="M107.568 20.3216V4.15186H110.011V20.3216H107.568Z" fill="#2264C3"/>
<path d="M122.519 20.3215V13.5618H115.884V20.3215H113.396V4.67822H115.884V11.3472H122.519V4.67822H125.03V20.3224H122.519V20.3215Z" fill="#2264C3"/>
<path d="M135.048 8.90269H137.469V20.3216H135.048V19.6136C133.957 20.2533 132.949 20.5731 132.023 20.5731C130.483 20.5731 129.453 20.15 128.929 19.3055C128.406 18.4601 128.145 16.98 128.145 14.8628V8.90186H130.588V14.8853C130.588 16.2554 130.701 17.1774 130.924 17.6489C131.149 18.1211 131.671 18.3568 132.493 18.3568C133.3 18.3568 134.04 18.2052 134.713 17.9004L135.048 17.763V8.90269Z" fill="#2264C3"/>
<path d="M145.652 8.65196C147.191 8.65196 148.3 9.08922 148.98 9.96459C149.66 10.84 150 12.3891 150 14.6121C150 16.8359 149.597 18.3843 148.789 19.2596C147.982 20.1358 146.562 20.5731 144.53 20.5731C143.828 20.5731 142.715 20.5048 141.19 20.3674L140.428 20.2991V4.15186H142.85V9.33659C143.881 8.87933 144.814 8.65196 145.652 8.65196ZM144.531 18.3576C145.726 18.3576 146.522 18.0728 146.918 17.5014C147.314 16.9309 147.512 15.9597 147.512 14.5896C147.512 13.2195 147.345 12.2567 147.008 11.7003C146.672 11.1448 146.123 10.8666 145.36 10.8666C144.643 10.8666 143.926 10.9815 143.208 11.2089L142.85 11.3239V18.266C143.671 18.3276 144.232 18.3576 144.531 18.3576Z" fill="#2264C3"/>
<path d="M10.6937 0L0 6.24917L3.73075 8.4305L10.6937 4.36184L17.6567 8.4305L21.3874 6.24917L10.6937 0Z" fill="#2280C3"/>
<path d="M10.6938 8.72266L7.4624 10.6108L10.6938 12.4998L13.9252 10.6108L10.6938 8.72266Z" fill="#64D82F"/>
</svg>
